<?xml version="1.0" encoding="UTF-8"?>
<!DOCTYPE svg PUBLIC "-//W3C//DTD SVG 1.1//EN" "http://www.w3.org/Graphics/SVG/1.1/DTD/svg11.dtd">
<!-- Creator: CorelDRAW 2017 -->
<svg xmlns="http://www.w3.org/2000/svg" xml:space="preserve" width="141.111mm" height="141.111mm" version="1.1" style="shape-rendering:geometricPrecision; text-rendering:geometricPrecision; image-rendering:optimizeQuality; fill-rule:evenodd; clip-rule:evenodd"
viewBox="0 0 14111 14111"
 xmlns:xlink="http://www.w3.org/1999/xlink">
 <defs>
  <style type="text/css">
   <![CDATA[
    .fil0 {fill:#0396D6}
    .fil1 {fill:#B5D1D5}
   ]]>
  </style>
 </defs>
 <g id="Capa_x0020_1">
  <metadata id="CorelCorpID_0Corel-Layer"/>
  <g id="_1091143111360">
   <path class="fil0" d="M6093 7002l-10 148c-63,22 -126,56 -188,104l-2 1 -2 1c-42,36 -71,81 -84,136 -14,60 -5,114 2,172 -36,46 -50,114 -50,170 0,58 15,127 53,173 1,22 4,44 8,65 -131,51 -238,158 -302,285 -63,-132 -170,-243 -306,-291 5,-26 8,-53 8,-81l0 -7c24,-43 33,-97 33,-144 0,-48 -9,-102 -34,-146 -10,-194 -105,-368 -303,-422l-14 -161c-153,-96 -256,-267 -256,-460l0 -996c0,-297 242,-517 539,-517l318 1244 325 -1244c64,0 118,12 164,34l0 0c196,81 314,412 496,604l534 -216c137,-87 297,100 128,217l-700 538 -295 -221 -64 1014zm-466 -1863l-43 114 -79 0 -80 0 -40 -106c35,12 72,19 111,19l0 0c46,0 91,-9 131,-26zm-119 1041l109 -402 -37 -515 -75 0 -75 0 -37 515 116 402zm327 -1665l0 3 0 3 0 3 0 13c21,19 35,65 35,117 0,53 -15,98 -35,117l0 43c0,187 -153,339 -339,339l0 0c-187,0 -339,-153 -339,-339l0 -33c-31,-3 -55,-59 -55,-127 0,-68 24,-124 55,-127l0 -3 0 -21 0 -11c-10,-97 -105,-232 44,-257 404,-316 697,115 739,153 -100,-45 -105,65 -105,127zm35 -155c-210,42 -239,-225 -640,0 285,-144 462,62 640,0zm-641 6c133,134 -97,124 -12,322 -100,-171 70,-150 12,-322z"/>
   <path class="fil1" d="M3672 7602l0 3 0 3 0 3 0 13c20,18 33,61 33,111 0,50 -14,93 -33,111l0 41c0,58 -16,113 -43,160 234,7 404,251 404,487l0 42c-178,70 -310,235 -369,421 -3,-9 -5,-18 -8,-26 -35,-139 -82,-252 -160,-330l1 0 -11 -9c-11,-10 -22,-20 -34,-28l-107 -90c-24,-21 4,-170 16,-234 3,0 7,0 10,0l0 0c12,0 25,0 37,1 -15,-2 -31,-3 -47,-3 2,-10 3,-17 4,-22 16,-101 25,-208 -14,-305 -27,-68 -73,-120 -132,-158 -6,-20 -15,-40 -27,-58 -38,-60 -97,-98 -164,-119l0 0 0 -3 0 -20 0 -11c-10,-92 -99,-220 42,-243 383,-299 660,109 700,145 -95,-43 -100,61 -100,120zm3526 1030c20,-51 47,-99 80,-142l11 35c4,13 9,25 14,37 -39,19 -74,42 -105,70zm174 -262c-27,18 -53,38 -77,60l-30 20 2 8c-68,72 -118,161 -142,259 -38,56 -66,120 -87,189 -10,-19 -20,-38 -31,-57l0 -317c0,-197 132,-400 312,-465 5,43 17,85 36,125 15,44 37,122 22,167 -1,4 -3,7 -5,11zm-9 -517c-26,-9 -47,-59 -47,-119 0,-65 23,-117 52,-120l0 -3 0 -20 0 -11c-10,-92 -99,-220 42,-243 383,-299 660,109 700,145 -93,-42 -99,56 -100,116 -103,-17 -217,-5 -304,19 -134,36 -273,113 -344,236zm2715 260c54,-59 127,-86 233,-86 -40,-10 -75,-19 -102,-26 140,-118 -149,-499 131,-629 13,-273 800,-131 621,252 -8,23 -14,44 -19,64 -56,36 -107,79 -154,126 -21,21 -41,43 -60,65 -45,51 -65,116 -93,178l147 41c0,7 1,14 1,20 -28,48 -39,110 -39,163 0,54 11,115 39,164l0 13c0,36 4,71 12,105 -172,55 -305,199 -376,369 -65,-145 -177,-270 -316,-339 88,-187 278,-317 497,-317l0 0c12,0 25,0 37,1 -20,-2 -40,-3 -60,-3l0 0c-219,0 -410,123 -509,303 -7,-3 -14,-6 -21,-8 7,-30 12,-62 13,-93 44,-51 61,-131 61,-195 0,-54 -12,-119 -42,-169zm-1016 167c-226,28 -414,187 -482,399 -11,-14 -22,-27 -34,-39l1 0 -11 -9c-11,-10 -22,-19 -34,-28l-51 -43 0 -26c0,-230 179,-467 405,-486 -27,-47 -43,-102 -43,-161l0 -31c-29,-3 -52,-56 -52,-120 0,-65 23,-117 52,-120l0 -3 0 -20 0 -11c-12,-390 643,-487 643,43 3,2 5,5 7,9l-5 1c-235,55 -346,259 -356,484 -29,48 -39,110 -40,163zm-447 450c41,-226 221,-405 447,-445 1,53 11,112 39,160l0 13c0,36 4,71 12,105 -193,62 -336,236 -399,432 -3,-9 -5,-18 -8,-26 -23,-92 -52,-173 -91,-239zm-2872 -177c-3,5 -6,10 -9,14 -66,23 -125,58 -178,104l0 -139c0,-133 60,-268 155,-363 -12,37 -16,76 -16,112 0,54 11,115 39,164l0 13c0,32 3,64 9,95zm124 -848c6,-51 26,-89 51,-91l0 -3 0 -20 0 -11c-10,-92 -36,-177 42,-243 244,-190 444,-95 569,10 71,60 31,28 45,41 38,97 -13,156 -13,214l0 3 0 3 0 3 0 13c18,17 32,56 33,102 -4,-1 -7,-2 -11,-3 -198,-146 -422,-182 -645,-61 -24,13 -48,28 -70,44zm842 406c130,89 213,258 213,422l0 203c-68,-74 -150,-132 -243,-165 7,-30 12,-62 13,-93 44,-51 61,-131 61,-195 0,-55 -12,-121 -44,-171zm-2256 -486c6,-6 13,-10 21,-11l0 -3 0 -20 0 -11c-12,-390 643,-487 643,43 20,18 33,61 33,111 0,50 -14,93 -33,111l0 41c0,58 -16,113 -43,160 234,7 404,251 404,487l0 219c-43,52 -78,111 -105,174l0 -70c0,-62 -10,-123 -28,-179 14,48 21,98 21,150l0 97c-74,-160 -206,-295 -368,-353 7,-30 12,-62 13,-93 44,-51 61,-131 61,-195 0,-64 -17,-144 -61,-195 -1,-196 -120,-358 -301,-430 -81,-32 -170,-44 -256,-32z"/>
   <path class="fil0" d="M5838 8128l0 3 0 3 0 3 0 15c-23,21 -39,71 -39,129 0,58 16,108 39,129l0 48c0,68 18,131 50,186 -272,8 -471,292 -471,567l0 779 122 0 0 -403c0,-73 12,-143 33,-209 -16,56 -25,114 -25,175l0 436 1279 0 0 -436c0,-352 -288,-640 -640,-640l0 0c-15,0 -29,1 -43,2 23,-2 47,-4 70,-4l0 0c371,0 675,304 675,675l0 403 117 0 0 -779c0,-267 -209,-543 -471,-566 32,-55 50,-119 50,-187l0 -37c34,-4 61,-65 61,-140 0,-75 -27,-137 -61,-140l0 -4 0 -23 0 -13c12,-107 116,-256 -49,-283 -446,-348 -769,127 -815,169 111,-50 116,72 116,140zm5050 0l0 3 0 3 0 3 0 15c-23,21 -39,71 -39,129 0,58 16,108 39,129l0 48c0,68 18,131 50,186 -272,8 -471,292 -471,567l0 779 122 0 0 -403c0,-73 12,-143 33,-209 -16,56 -25,114 -25,175l0 436 1279 0 0 -436c0,-352 -288,-640 -640,-640l0 0c-15,0 -29,1 -43,2 23,-2 47,-4 70,-4l0 0c371,0 675,304 675,675l0 403 117 0 0 -779c0,-267 -209,-543 -471,-566 32,-55 50,-119 50,-187l0 -37c34,-4 61,-65 61,-140 0,-75 -27,-137 -61,-140l0 -4 0 -23 0 -13c12,-107 116,-256 -49,-283 -446,-348 -769,127 -815,169 111,-50 116,72 116,140zm-2283 872c-65,-265 -162,-376 -396,-377 47,-11 87,-22 119,-31 -163,-137 174,-581 -152,-732 -15,-318 -932,-153 -723,294 81,232 3,297 -64,340 18,58 55,100 105,130 -316,14 -391,338 -391,588l0 779 122 0 0 -403c0,-73 12,-143 33,-208 -16,56 -24,114 -24,175l0 436 1279 0 0 -436c0,-352 -288,-640 -640,-640l0 0c-15,0 -29,1 -43,2 23,-2 47,-4 70,-4l0 0c371,0 675,304 675,675l0 403 117 0 -69 -901c-2,-31 -9,-61 -20,-90zm950 -85l0 0c-15,0 -29,1 -43,2 23,-2 47,-4 70,-4l0 0c371,0 675,304 675,675l0 403 117 0 0 -779c0,-267 -209,-543 -471,-566 32,-55 50,-119 50,-187l0 -37c34,-4 61,-65 61,-140 0,-75 -27,-137 -61,-140l0 -4 0 -23 0 -13c14,-455 -748,-568 -748,50 -23,21 -39,71 -39,129 0,58 16,108 39,129l0 48c0,68 18,131 50,186 -272,8 -471,292 -471,567l0 779 122 0 0 -403c0,-73 12,-143 33,-208 -16,56 -24,114 -24,175l0 436 1279 0 0 -436c0,-352 -288,-640 -640,-640zm-6000 85c-65,-265 -162,-376 -396,-377 47,-11 87,-22 119,-31 -163,-137 174,-581 -152,-732 -15,-318 -932,-153 -723,294 81,232 3,297 -64,340 18,58 55,100 105,130 -237,10 -324,148 -388,466l8 -3c-7,39 -11,81 -11,125l0 779 122 0 0 -403c0,-73 12,-143 33,-208 -16,56 -24,114 -24,175l0 436 1279 0 0 -436c0,-352 -288,-640 -640,-640l0 0c-15,0 -29,1 -43,2 23,-2 47,-4 70,-4l0 0c371,0 675,304 675,675l0 403 117 0 -69 -901c-2,-31 -9,-61 -20,-90zm951 -85l0 0c-15,0 -29,1 -43,2 23,-2 47,-4 70,-4l0 0c371,0 675,304 675,675l0 403 117 0 0 -779c0,-267 -209,-543 -471,-566 32,-55 50,-119 50,-187l0 -37c34,-4 61,-65 61,-140 0,-75 -27,-137 -61,-140l0 -4 0 -23 0 -13c14,-455 -748,-568 -748,50 -23,21 -39,71 -39,129 0,58 16,108 39,129l0 48c0,68 18,131 50,186 -272,8 -471,292 -471,567l0 779 122 0 0 -403c0,-73 12,-143 33,-208 -16,56 -24,114 -24,175l0 436 1279 0 0 -436c0,-352 -288,-640 -640,-640z"/>
   <path class="fil0" d="M8042 5397c-237,0 -429,-192 -429,-429 0,-237 192,-429 429,-429 140,0 265,67 343,171l-115 90c-52,-70 -134,-115 -228,-115 -156,0 -283,127 -283,283 0,156 127,283 283,283 156,0 283,-127 283,-283 0,-10 -1,-19 -1,-29l-182 182c-16,16 -42,16 -58,0l-196 -196c-16,-16 -16,-42 0,-58l7 -7c13,-13 31,-16 47,-8l173 94 328 -255c16,-13 39,-11 54,4l8 8c16,16 16,42 0,58l-59 59c17,47 27,97 27,150 0,237 -192,429 -429,429z"/>
   <rect class="fil1" x="8787" y="4825" width="1225" height="144"/>
   <path class="fil0" d="M8042 6518c-237,0 -429,-192 -429,-429 0,-237 192,-429 429,-429 140,0 265,67 343,171l-115 90c-52,-70 -134,-115 -228,-115 -156,0 -283,127 -283,283 0,156 127,283 283,283 156,0 283,-127 283,-283 0,-10 -1,-19 -1,-29l-182 182c-16,16 -42,16 -58,0l-196 -196c-16,-16 -16,-42 0,-58l7 -7c13,-13 31,-16 47,-8l173 94 328 -255c16,-13 39,-11 54,4l8 8c16,16 16,42 0,58l-59 59c17,47 27,97 27,150 0,237 -192,429 -429,429z"/>
   <rect class="fil1" x="8787" y="5946" width="1225" height="144"/>
  </g>
 </g>
</svg>
