<?xml version="1.0" encoding="UTF-8"?>
<!DOCTYPE svg PUBLIC "-//W3C//DTD SVG 1.1//EN" "http://www.w3.org/Graphics/SVG/1.1/DTD/svg11.dtd">
<!-- Creator: CorelDRAW 2017 -->
<svg xmlns="http://www.w3.org/2000/svg" xml:space="preserve" width="141.111mm" height="141.111mm" version="1.1" style="shape-rendering:geometricPrecision; text-rendering:geometricPrecision; image-rendering:optimizeQuality; fill-rule:evenodd; clip-rule:evenodd"
viewBox="0 0 14111 14111"
 xmlns:xlink="http://www.w3.org/1999/xlink">
 <defs>
  <style type="text/css">
   <![CDATA[
    .fil1 {fill:#0396D6}
    .fil0 {fill:#B5D1D5}
    .fil2 {fill:#0396D6;fill-rule:nonzero}
   ]]>
  </style>
 </defs>
 <g id="Capa_x0020_1">
  <metadata id="CorelCorpID_0Corel-Layer"/>
  <g id="_1091142816832">
   <path class="fil0" d="M4052 7353c-5,-40 -5,-81 2,-120l144 -797c90,-499 206,-701 573,-702l201 -47c71,56 161,90 259,90l0 0c97,0 187,-34 259,-90l201 47c20,0 39,1 58,2 333,0 714,-220 1402,-502 163,-63 383,192 112,336 -489,271 -1044,531 -1173,1028 -98,461 -5,1095 -13,1091l192 874c-180,108 -321,287 -397,487 -93,-263 -292,-492 -558,-568 14,-54 21,-109 21,-165l0 -25c40,-66 55,-152 55,-225 0,-73 -15,-159 -55,-224 0,-17 1,-46 4,-69l201 -43 -80 -170c-13,-13 -27,-31 -39,-45 -27,-31 -55,-62 -84,-91 -81,-83 -173,-157 -274,-213 -308,-170 -618,-118 -892,85 -43,11 -83,28 -116,55zm559 -1894c63,18 154,42 258,64 72,125 208,209 362,209l0 0c138,0 261,-68 337,-171 145,-31 260,-100 302,-233 -89,-59 -194,-146 -86,-456 280,-598 -948,-820 -969,-394 -436,203 15,798 -204,982z"/>
   <path class="fil1" d="M8485 4724c34,-10 36,14 15,31l-1130 574c-15,-28 -38,-53 -65,-71l1180 -534z"/>
   <path class="fil2" d="M4297 3630l5512 0c103,0 197,42 265,110 68,68 110,162 110,265l0 2720c0,103 -42,197 -110,265 -68,68 -162,110 -265,110l-3639 0c0,-60 2,-120 5,-179l3633 0c54,0 103,-22 139,-58 36,-36 58,-85 58,-139l0 -2720c0,-54 -22,-103 -58,-139 -36,-36 -85,-58 -139,-58l-5512 0c-54,0 -103,22 -139,58 -36,36 -58,85 -58,139l0 2271c-10,45 -18,90 -27,137l-93 514c-37,-58 -59,-128 -59,-202l0 -2720c0,-103 42,-197 110,-265 68,-68 162,-110 265,-110z"/>
   <path class="fil1" d="M5209 7851l0 5 0 5 0 4 0 21c32,30 55,101 55,182 0,82 -23,152 -55,183l0 67c0,96 -26,185 -71,263 384,12 665,413 665,800l0 1100 -173 0 0 -569c0,-103 -17,-202 -47,-295 23,79 35,162 35,247l0 616 -1807 0 0 -616c0,-497 406,-903 903,-903l0 0c20,0 41,1 61,2 -33,-3 -66,-5 -99,-5l0 0c-525,0 -954,429 -954,954l0 569 -166 0 0 -1100c0,-378 295,-768 666,-799 -45,-78 -71,-168 -71,-264l0 -52c-48,-5 -86,-92 -86,-198 0,-106 38,-193 86,-198l0 -5 0 -32 0 -18c-16,-151 -163,-361 69,-400 630,-492 1086,179 1152,239 -156,-70 -164,101 -164,198zm4257 1111l0 0c21,0 41,1 61,2 -33,-3 -66,-5 -99,-5l0 0c-525,0 -954,429 -954,954l0 569 -166 0 0 -1100c0,-378 295,-768 666,-799 -45,-78 -71,-168 -71,-264l0 -52c-48,-5 -86,-92 -86,-198 0,-106 38,-193 86,-198l0 -5 0 -32 0 -18c-16,-151 -60,-291 69,-400 401,-313 731,-156 935,16 117,98 50,46 74,68 63,160 -21,256 -22,353l0 5 0 5 0 4 0 21c32,30 55,101 55,182 0,82 -23,152 -55,183l0 67c0,96 -26,185 -71,263 384,12 665,413 665,800l0 1100 -173 0 0 -569c0,-103 -16,-201 -47,-294 22,78 34,161 34,247l0 616 -1807 0 0 -616c0,-497 406,-903 903,-903zm-2375 0l0 0c20,0 41,1 61,2 -33,-3 -66,-5 -99,-5l0 0c-525,0 -954,429 -954,954l0 569 -166 0 0 -1100c0,-378 295,-768 666,-799 -45,-78 -71,-168 -71,-264l0 -52c-48,-5 -86,-92 -86,-198 0,-106 38,-193 86,-198l0 -5 0 -32 0 -18c-20,-642 1057,-802 1057,71 32,30 55,101 55,182 0,82 -23,152 -55,183l0 67c0,96 -26,185 -71,263 384,12 665,413 665,800l0 1100 -173 0 0 -569c0,-103 -16,-202 -47,-294 22,79 34,161 34,247l0 616 -1807 0 0 -616c0,-497 406,-903 903,-903z"/>
  </g>
 </g>
</svg>
